<?xml version="1.0" encoding="UTF-8"?>
<svg id="Layer_1" data-name="Layer 1" xmlns="http://www.w3.org/2000/svg" viewBox="0 0 566.93 566.93">
  <defs>
    <style>
      .cls-1 {
        fill: #f63161;
      }

      .cls-2 {
        fill: #1a0d31;
      }
    </style>
  </defs>
  <path class="cls-1" d="M386.53,374.02c25.69-80.72-50.24-160.93-131.97-136.66-82.07,23.49-103.6,132.8-36.31,185.64,17.67,14.3,40.74,22.61,63.6,23.11v31.82c-29.65-.57-60.05-10.48-84.05-28.11-78.36-55.89-76.43-179.37,3.61-233.11,80.13-56.72,195.85-14.81,220.58,80.13,7.86,29.08,5.89,60.69-5.44,88.03l-30.02-10.85h0Z"/>
  <path class="cls-2" d="M408.96,158.74c-2.02-16.15-11.77-30.36-26.08-38.02-14.07-7.51-30.94-7.79-45.33-.87-.17-1.45-.34-2.85-.52-3.71-1.33-6.35-3.49-16.02-4.65-19.47-1.63-4.84-3.37-6.69-5.28-7.29-7.18-2.25-14.67,6.14-10.35,12.41,36.96,59.07,3.48,138.56-26.69,193.85-1.61,1.45-.61,3.95,9.81,13.47,12.86,5.87,16.19,4.63,16.8,2.29,8.69-13.93,19.97-37.52,24.12-53.35,8.47-33.43,7.92-64.82,3.42-98.12,3.63,3.81,7.81,7.13,12.56,9.67,9.29,4.96,19.8,6.79,30.02,5.46,5.53-.72,10.97-2.35,16.08-4.92l7.07-3.55-.98-7.86Z"/>
  <path class="cls-1" d="M263.11,258.92c15.49,38.4,58.98,60.33,99.16,49.09l5.42,16.06c-47.59,20.33-108.13-9.41-120.65-59.73l16.06-5.42h0Z"/>
</svg>